{"title":"Dangerous Liaisons [1988] BRRip XviD - CODY","uid":7085177,"size":946238683,"categoryP":"video","categoryS":"movies","magnet":"?xt=urn:btih:6e889e1213970e5add0fd65fa17f1c7c477a6b1e&amp;dn=Dangerous+Liaisons+%5B1988%5D+BRRip+XviD+-+CODY&amp;tr=udp%3A%2F%2Ftracker.openbittorrent.com%3A80&amp;tr=udp%3A%2F%2Fopen.demonii.com%3A1337&amp;tr=udp%3A%2F%2Ftracker.coppersurfer.tk%3A6969&amp;tr=udp%3A%2F%2Fexodus.desync.com%3A6969","seeders":0,"leechers":1,"uploader":"CODYBOSS1969","files":5,"time":1331159197,"description":"General\nComplete name                            : Dangerous Liaisons [1988] BRRip XviD - CODY.avi\nFormat                                   : AVI\nFormat/Info                              : Audio Video Interleave\nFile size                                : 902 MiB\nDuration                                 : 1h 59mn\nOverall bit rate                         : 1 052 Kbps\nWriting application                      : VirtualDubMod 1.5.10.3 | www.virtualdub-fr.org || (build 2550/release)\nWriting library                          : VirtualDubMod build 2550/release\n\nVideo\nID                                       : 0\nFormat                                   : MPEG-4 Visual\nFormat profile                           : Advanced Simple@L5\nFormat settings, BVOP                    : 4\nFormat settings, QPel                    : No\nFormat settings, GMC                     : No warppoints\nFormat settings, Matrix                  : Default (H.263)\nCodec ID                                 : XVID\nCodec ID/Hint                            : XviD\nDuration                                 : 1h 59mn\nBit rate                                 : 915 Kbps\nWidth                                    : 720 pixels\nHeight                                   : 400 pixels\nDisplay aspect ratio                     : 16:9\nFrame rate                               : 23.976 fps\nColor space                              : YUV\nChroma subsampling                       : 4:2:0\nBit depth                                : 8 bits\nScan type                                : Progressive\nCompression mode                         : Lossy\nBits/(Pixel*Frame)                       : 0.132\nStream size                              : 784 MiB (87%)\nWriting library                          : XviD 1.2.1 (UTC 2008-12-04)\n\nAudio\nID                                       : 1\nFormat                                   : MPEG Audio\nFormat version                           : Version 1\nFormat profile                           : Layer 3\nCodec ID                                 : 55\nCodec ID/Hint                            : MP3\nDuration                                 : 1h 59mn\nBit rate mode                            : Constant\nBit rate                                 : 128 Kbps\nChannel(s)                               : 2 channels\nSampling rate                            : 48.0 KHz\nCompression mode                         : Lossy\nStream size                              : 110 MiB (12%)\nAlignment                                : Aligned on interleaves\nInterleave, duration                     : 42 ms (1.00 video frame)\nInterleave, preload duration             : 504 ms\nWriting library                          : LAME3.99.1\n\n\n\n\nIMDB link:                                 &lt;a href=&quot; http://www.imdb.com/title/tt0094947/&quot; rel=&quot;nofollow&quot; target=&quot;_NEW&quot;&gt; http://www.imdb.com/title/tt0094947/&lt;/a&gt;\n\n\n\nSubtitles included                       : Romanian\n\n\n\nPlease seed at least 1,5:1 . This way this torrent has a chance to survive !\n\n\n\nThanks . Enjoy !!!\n","torrent":{"xt":"urn:btih:6e889e1213970e5add0fd65fa17f1c7c477a6b1e","amp;dn":"Dangerous+Liaisons+%5B1988%5D+BRRip+XviD+-+CODY","amp;tr":["udp%3A%2F%2Ftracker.openbittorrent.com%3A80","udp%3A%2F%2Fopen.demonii.com%3A1337","udp%3A%2F%2Ftracker.coppersurfer.tk%3A6969","udp%3A%2F%2Fexodus.desync.com%3A6969"],"infoHash":"6e889e1213970e5add0fd65fa17f1c7c477a6b1e","infoHashBuffer":{"type":"Buffer","data":[110,136,158,18,19,151,14,90,221,15,214,95,161,127,28,124,71,122,107,30]},"announce":[],"urlList":[]}}